<svg viewBox="0 0 30 30" xmlns="http://www.w3.org/2000/svg" ><path d="M25.563 25.564h-4.446v-6.963c0-1.66-.03-3.795-2.312-3.795-2.315 0-2.67 1.808-2.67 3.675v7.083h-4.447V11.247h4.268v1.956h.06c.594-1.125 2.045-2.312 4.21-2.312 4.506 0 5.337 2.965 5.337 6.82v7.853zM6.673 9.29a2.58 2.58 0 110-5.16 2.58 2.58 0 010 5.16zM4.449 25.564h4.45V11.247h-4.45v14.317zM27.779 0H2.214C.993 0 0 .968 0 2.162v25.673C0 29.03.993 30 2.214 30H27.78C29.003 30 30 29.03 30 27.835V2.162C30 .968 29.003 0 27.78 0z" fill-rule="evenodd" fill="#fff"></path></svg>