<svg viewBox="0 0 30 30" xmlns="http://www.w3.org/2000/svg"><path d="M30 15c0 2.721-.67 5.231-2.012 7.53a14.933 14.933 0 01-5.459 5.458C20.231 29.33 17.721 30 15 30c-1.445 0-2.865-.208-4.258-.625.768-1.21 1.276-2.279 1.524-3.203a709 709 0 001.054-4.121c.26.508.736.947 1.426 1.318a4.63 4.63 0 002.227.557c1.575 0 2.981-.446 4.218-1.338 1.237-.892 2.194-2.12 2.872-3.682.677-1.562 1.015-3.32 1.015-5.273a8.037 8.037 0 00-1.162-4.18c-.775-1.302-1.898-2.363-3.37-3.183-1.47-.82-3.13-1.23-4.98-1.23-1.367 0-2.643.188-3.828.565-1.185.378-2.19.88-3.017 1.504a10.286 10.286 0 00-2.13 2.159 8.93 8.93 0 00-1.308 2.529 8.523 8.523 0 00-.42 2.617c0 1.354.26 2.546.782 3.574.52 1.029 1.282 1.752 2.285 2.168.39.157.638.026.742-.39.026-.092.078-.293.156-.606.078-.312.13-.508.156-.586.079-.3.007-.58-.214-.84-.665-.794-.997-1.777-.997-2.949 0-1.966.68-3.655 2.041-5.068 1.361-1.413 3.142-2.12 5.342-2.12 1.966 0 3.5.535 4.6 1.602 1.1 1.068 1.65 2.455 1.65 4.16 0 2.214-.446 4.095-1.338 5.645-.892 1.55-2.034 2.324-3.427 2.324-.795 0-1.433-.283-1.914-.85-.482-.566-.632-1.246-.45-2.04.105-.456.277-1.065.518-1.827.24-.761.436-1.432.586-2.011.15-.58.224-1.071.224-1.475 0-.651-.175-1.191-.527-1.621-.351-.43-.853-.645-1.504-.645-.807 0-1.49.371-2.05 1.114-.56.742-.84 1.666-.84 2.773 0 .95.162 1.745.488 2.383l-1.934 8.164c-.221.911-.306 2.064-.254 3.457-2.682-1.185-4.85-3.014-6.504-5.488C.827 20.788 0 18.034 0 15c0-2.721.67-5.231 2.012-7.53A14.933 14.933 0 017.47 2.013C9.769.67 12.279 0 15 0s5.231.67 7.53 2.012a14.933 14.933 0 015.458 5.459C29.33 9.769 30 12.279 30 15z" fill-rule="nonzero" fill="#fff"></path></svg>